# This file uses centimeters as units for non-parametric coordinates.

mtllib gem for coat crystal.mtl
g default
v 0.089009 0.044996 -5.962675
v 0.083622 0.042828 -5.931298
v 0.078746 0.044939 -5.962833
v 0.076921 0.050247 -5.975813
v 0.084098 0.050246 -5.981730
v 0.091160 0.050248 -5.975677
v -0.866297 0.045211 -0.820219
v -0.869689 0.051563 -0.817901
v -0.872253 0.051630 -0.826036
v -0.872077 0.051693 -0.834631
v -0.868180 0.045258 -0.833321
v -0.862088 0.042828 -0.827480
v 0.088699 0.303033 -5.958049
v 0.091032 0.295496 -5.966720
v 0.084191 0.295247 -5.969629
v 0.078193 0.296244 -5.973782
v 0.079812 0.303046 -5.963018
v -0.869359 0.199018 -0.828887
v -0.872122 0.191686 -0.830808
v -0.872290 0.191960 -0.822328
v -0.869718 0.192231 -0.814240
v -0.867287 0.199555 -0.816526
v 0.936692 0.199683 -0.800270
v 0.939083 0.192427 -0.797963
v 0.941757 0.192096 -0.805954
v 0.941734 0.191764 -0.814440
v 0.938959 0.199111 -0.812553
v 0.016920 0.635775 0.918369
v 0.013834 0.628488 0.920112
v 0.021507 0.628919 0.925191
v 0.029130 0.628869 0.920994
v 0.026367 0.635875 0.918861
v 0.937829 0.045210 -0.816903
v 0.941762 0.051563 -0.818090
v 0.941751 0.051629 -0.809559
v 0.939009 0.051694 -0.801417
v 0.935681 0.045256 -0.803834
v 0.931632 0.042828 -0.811243
v 0.016304 0.045251 0.914956
v 0.021799 0.042828 0.906205
v 0.027149 0.045250 0.915027
v 0.029669 0.051142 0.918526
v 0.021657 0.051140 0.923316
v 0.013723 0.051142 0.918400
v 0.084000 0.045930 -5.973734
v -0.869661 0.046367 -0.826412
v 0.083569 0.301076 -5.965090
v -0.870325 0.197947 -0.822660
v 0.939817 0.198064 -0.806325
v 0.021602 0.634722 0.922875
v 0.939167 0.046366 -0.809981
v 0.021690 0.046324 0.920284
v 0.037485 0.812849 -0.825459
v -0.860161 0.296228 -0.822504
v -0.859978 0.295053 -0.846850
v -0.865705 0.272420 -0.824059
v -0.865196 0.272393 -0.820981
v -0.852127 0.296584 -0.798237
v 0.929711 0.296330 -0.806317
v 0.921288 0.296685 -0.782197
v 0.934692 0.272495 -0.804716
v 0.935248 0.272523 -0.807776
v 0.929969 0.295156 -0.830661
v -0.864500 0.296660 -0.822464
v 0.934022 0.296763 -0.806197
v 0.024181 0.638499 0.904796
v 0.019495 0.638499 0.904771
v 0.016022 0.638508 0.901645
v 0.026265 0.635933 0.918729
v 0.027710 0.638509 0.901691
v 0.035291 0.809669 -0.801143
v 0.039237 0.809666 -0.801107
v 0.043107 0.808893 -0.801040
v 0.037318 0.811192 -0.806986
v 0.031419 0.808902 -0.801146
v 0.080780 0.308907 -5.907295
v 0.086108 0.308907 -5.907244
v 0.089247 0.309188 -5.902946
v 0.087885 0.303682 -5.954490
v 0.081006 0.304253 -5.954855
v 0.077559 0.309187 -5.903058
v 0.039676 0.810644 -0.849746
v 0.035730 0.810647 -0.849782
v 0.031858 0.809880 -0.849785
v 0.037652 0.811936 -0.843966
v 0.043547 0.809871 -0.849679
v 0.023034 0.638162 0.914539
v 0.018991 0.637363 0.916029
v 0.082813 0.306307 -5.942507
v 0.085115 0.306202 -5.942406
vt 0.377048 0.997952
vt 0.376959 0.020082
vt 0.623361 0.998448
vt 0.626121 0.017129
vt 0.376610 0.236596
vt 0.624582 0.235491
vt 0.626121 0.235116
vt 0.125419 0.017129
vt 0.376110 0.514707
vt 0.872841 0.238174
vt 0.872806 0.014562
vt 0.623026 0.751971
vt 0.376139 0.732616
vt 0.622802 0.735437
vt 0.624574 0.017501
vt 0.622949 0.511234
vt 0.376552 0.751638
vt 0.373041 0.019337
vt 0.373058 0.233064
vt 0.125420 0.235312
vt 0.375000 0.999417
vt 0.374417 -0.000000
vt 0.375581 -0.000000
vt 0.375581 1.000000
vt 0.374999 0.020148
vt 0.625920 -0.000000
vt 0.625000 0.999080
vt 0.625332 0.017002
vt 0.624655 1.000000
vt 0.624655 -0.000000
vt 0.374890 0.232761
vt 0.625333 0.235395
vt 0.625910 0.250000
vt 0.125000 0.237504
vt 0.375000 0.512496
vt 0.125155 0.250155
vt 0.874149 0.250000
vt 0.625000 0.510743
vt 0.875000 0.239257
vt 0.125345 -0.000000
vt 0.375000 0.750345
vt 0.375000 0.738597
vt 0.125000 0.011403
vt 0.376659 0.743233
vt 0.625000 0.750983
vt 0.874017 -0.000000
vt 0.623117 0.743526
vt 0.875000 0.009364
vt 0.625000 0.740636
vt 0.375000 1.000000
vt 0.375000 0.000000
vt 0.625000 0.000000
vt 0.625000 1.000000
vt 0.375000 0.250000
vt 0.625000 0.250000
vt 0.125000 0.250000
vt 0.875000 0.250000
vt 0.625000 0.500000
vt 0.125000 0.000000
vt 0.375000 0.750000
vt 0.625000 0.750000
vt 0.875000 0.000000
vt 0.625000 0.250910
vt 0.623966 0.244598
vt 0.374845 0.499845
vt 0.376474 0.504818
vt 0.375000 0.500000
vt 0.624048 0.251180
vt 0.623789 0.249613
vt 0.375908 0.499015
vt 0.376313 0.500260
vt 0.623731 0.251269
vt 0.376260 0.498741
vt 0.623663 0.251146
vt 0.376254 0.498768
vt 0.623424 0.503969
vt 0.625000 0.499149
vt 0.499633 0.375367
vt 0.256942 0.368246
vt 0.376300 0.243995
vt 0.270722 0.354839
vt 0.250000 0.375000
vt 0.623726 0.254720
vt 0.379710 0.498736
vt 0.376262 0.497563
vt 0.622553 0.251272
vt 0.623427 0.496832
vt 0.500558 0.377889
vt 0.376707 0.253325
vt 0.499851 0.373973
vt 0.502166 0.376281
vt 0.500947 0.376673
vt 0.498243 0.375581
vt 0.499188 0.374919
vt 0.621814 0.498436
vt 0.623424 0.503846
vt 0.378315 0.251717
vt 0.376425 0.246354
vt 0.270629 0.354929
vt 0.622510 0.498176
vt 0.623162 0.497522
vt 0.501619 0.376807
vt 0.501076 0.377349
vt 0.377853 0.251873
vt 0.376618 0.252448
vt 0.498805 0.375023
vt 0.499419 0.374408
vt 0.623579 0.500855
vt 0.624369 0.499595
vt 0.354518 0.270618
vt 0.329401 0.296358
vn 0.000080 -0.999989 -0.004786
vn 0.240773 -0.969664 -0.042195
vn 0.248790 -0.967689 -0.041016
vn 0.001054 -0.999999 0.000018
vn 0.802169 -0.582274 -0.132222
vn 0.986665 -0.001229 -0.162759
vn 0.986571 -0.015929 -0.162554
vn 0.802275 -0.582157 -0.132092
vn -0.983381 -0.000870 -0.181554
vn -0.805693 -0.573382 -0.148629
vn -0.805796 -0.573270 -0.148507
vn -0.983296 -0.015550 -0.181347
vn -0.237768 -0.970213 -0.046406
vn -0.001051 -0.999999 -0.000000
vn -0.246005 -0.968205 -0.045387
vn 0.541022 0.036128 -0.840232
vn 0.541022 0.036128 -0.840232
vn 0.541022 0.036128 -0.840232
vn 0.541022 0.036128 -0.840232
vn -0.130519 0.028888 -0.991025
vn -0.130519 0.028888 -0.991025
vn -0.130519 0.028888 -0.991025
vn -0.130519 0.028888 -0.991025
vn -0.891027 -0.014773 0.453710
vn -0.748186 -0.543802 0.380127
vn -0.747355 -0.544080 0.381363
vn -0.889187 -0.012293 0.457379
vn -0.257889 -0.957244 0.131061
vn -0.000001 -0.999999 0.001527
vn -0.255541 -0.957724 0.132151
vn -0.989778 -0.023677 0.140637
vn -0.988897 0.010641 0.148223
vn -0.983203 0.023772 -0.180963
vn -0.891853 0.004328 0.452304
vn 0.986591 0.014448 -0.162574
vn 0.901524 0.409231 -0.140660
vn 0.901588 0.409137 -0.140523
vn 0.986472 0.024002 -0.162164
vn 0.977109 0.139727 -0.160419
vn 0.977276 0.138793 -0.160211
vn 0.977323 0.138515 -0.160166
vn 0.977317 0.138553 -0.160171
vn 0.977421 0.138437 -0.159635
vn 0.977467 0.138355 -0.159428
vn -0.894699 0.418215 -0.156876
vn -0.983324 0.012913 -0.181403
vn -0.894774 0.418108 -0.156731
vn -0.849812 0.411522 0.329347
vn -0.890097 0.008615 0.455690
vn -0.848999 0.411731 0.331176
vn 0.884635 0.004210 0.466266
vn 0.844584 0.411536 0.342514
vn 0.843724 0.411819 0.344290
vn 0.882775 0.008072 0.469727
vn 0.889172 0.120213 0.441500
vn 0.888752 0.120498 0.442266
vn 0.888162 0.120737 0.443385
vn 0.888183 0.120645 0.443368
vn 0.888183 0.120645 0.443368
vn 0.888183 0.120645 0.443368
vn 0.985895 0.010350 0.167047
vn 0.987133 -0.023810 0.158118
vn 0.883799 -0.014779 0.467634
vn 0.498637 0.000306 0.866811
vn 0.498865 -0.007353 0.866649
vn 0.881858 -0.012255 0.471357
vn -0.539828 0.000877 0.841775
vn -0.539521 -0.006925 0.841944
vn 0.258134 -0.956442 0.136331
vn 0.255759 -0.956932 0.137363
vn 0.743736 -0.540987 0.392670
vn 0.742896 -0.541277 0.393859
vn 0.416392 -0.843336 -0.339709
vn 0.416392 -0.843336 -0.339709
vn 0.416392 -0.843336 -0.339709
vn 0.416392 -0.843336 -0.339709
vn 0.006615 -0.997322 -0.072842
vn -0.409666 -0.841438 -0.352357
vn -0.409666 -0.841438 -0.352357
vn -0.409666 -0.841438 -0.352357
vn -0.409666 -0.841438 -0.352357
vn -0.416111 -0.907552 0.056585
vn -0.859155 -0.497521 0.119691
vn 0.136044 0.960989 -0.240814
vn 0.077631 0.976077 -0.203092
vn 0.136044 0.960989 -0.240814
vn 0.382599 0.690882 -0.613434
vn 0.382599 0.690882 -0.613434
vn 0.365112 0.701451 -0.612095
vn 0.366893 0.700392 -0.612242
vn 0.346746 0.712141 -0.610428
vn 0.346746 0.712141 -0.610428
vn -0.895974 0.120104 0.427557
vn -0.895568 0.120388 0.428328
vn -0.973829 0.141152 -0.178140
vn -0.973879 0.141069 -0.177929
vn -0.984939 0.059078 0.162499
vn -0.926555 0.351897 0.132910
vn 0.982209 0.058690 0.178382
vn 0.925046 0.350911 0.145436
vn -0.023620 0.966417 0.255889
vn 0.084866 0.957292 0.276389
vn -0.143124 0.944991 0.294121
vn -0.023620 0.966418 0.255889
vn -0.558714 0.366493 0.743991
vn 0.488621 0.375342 0.787635
vn 0.414095 -0.907445 0.071198
vn 0.855436 -0.497412 0.144259
vn -0.487204 -0.536021 0.689430
vn -0.001684 -0.970530 0.240976
vn 0.477032 -0.535781 0.696692
vn -0.894993 0.120624 0.429461
vn -0.895014 0.120531 0.429444
vn -0.895014 0.120531 0.429444
vn -0.499003 0.865999 0.032285
vn 0.000067 0.999880 -0.015482
vn -0.495839 0.863840 -0.089022
vn -0.498161 0.862484 -0.089199
vn -0.499045 0.866132 0.027735
vn -0.490243 0.867682 0.082400
vn -0.497287 0.863700 0.082024
vn -0.499644 0.862353 0.081875
vn -0.471392 0.877197 -0.091182
vn 0.500202 0.861137 0.090784
vn 0.497828 0.862500 0.090893
vn 0.490675 0.866562 0.091156
vn 0.474799 0.876216 -0.082527
vn 0.499471 0.862638 -0.079899
vn 0.501811 0.861267 -0.080033
vn 0.500451 0.864781 0.041266
vn -0.000941 0.994795 0.101895
vn 0.500574 0.864912 0.036781
vn -0.870025 0.212219 0.444994
vn -0.961047 0.234369 0.146492
vn -0.952946 0.234472 -0.192136
vn -0.973713 0.141272 -0.178679
vn 0.956767 0.233181 -0.173850
vn 0.958702 0.233025 0.163064
vn 0.863151 0.211173 0.458668
vn -0.973719 0.141235 -0.178673
vn -0.973719 0.141235 -0.178673
vn -0.973719 0.141235 -0.178673
vn -0.047434 0.993923 0.099329
vn -0.066036 0.992878 0.099162
vn 0.046105 0.993900 0.100186
vn 0.065388 0.992802 0.100343
vn 0.033122 0.994607 -0.098285
vn 0.056738 0.993561 -0.098069
vn -0.030173 0.994648 -0.098819
vn -0.054242 0.993600 -0.099078
vn 0.099439 0.978637 0.179951
vn -0.159584 0.958009 0.238225
vn -0.084603 0.991089 -0.102882
vn 0.147438 0.983685 -0.103081
s 1
g gem coat_crystal_parts
usemtl lambert5SG
f 2/1/1 1/21/2 33/41/3 38/17/4
s 2
f 1/22/5 6/18/6 34/8/7 33/40/8
s 3
f 4/2/9 3/23/10 11/30/11 10/15/12
s 1
f 3/24/13 2/1/1 12/3/14 11/29/15
s off
f 6/18/16 5/25/17 15/31/18 14/19/19
f 5/25/20 4/2/21 16/5/22 15/31/23
s 3
f 8/4/24 7/26/25 39/46/26 44/11/27
s 1
f 7/27/28 12/3/14 40/12/29 39/45/30
s 3
f 10/15/12 9/28/31 20/32/32 19/6/33
f 9/28/31 8/4/24 21/7/34 20/32/32
s 2
f 14/19/35 13/82/36 27/36/37 26/20/38
s 6
f 13/79/39 79/99/40 78/89/41 63/85/42 62/70/43 27/65/44
s 3
f 17/80/45 16/5/46 19/6/33 18/64/47
f 22/33/48 21/7/34 29/10/49 28/37/50
s 2
f 24/9/51 23/66/52 32/76/53 31/16/54
s 6
f 23/66/55 61/71/56 60/84/57 70/95/58 69/96/59 32/76/60
s 2
f 26/20/38 25/34/61 35/43/62 34/8/7
f 25/35/61 24/9/51 36/13/63 35/42/62
f 31/16/54 30/38/64 43/49/65 42/14/66
s 3
f 30/39/67 29/10/49 44/11/27 43/48/68
s 1
f 38/17/4 37/44/69 41/47/70 40/12/29
s 2
f 37/44/71 36/13/63 42/14/66 41/47/72
s 3
f 4/2/9 10/15/12 19/6/33 16/5/46
s 2
f 24/9/51 31/16/54 42/14/66 36/13/63
s 1
f 38/17/4 40/12/29 12/3/14 2/1/1
s 3
f 8/4/24 44/11/27 29/10/49 21/7/34
s 2
f 34/8/7 6/18/6 14/19/35 26/20/38
s off
f 5/25/73 6/18/74 1/22/75 45/51/76
s 1
f 1/21/2 2/1/1 3/24/13 45/50/77
s off
f 3/23/78 4/2/79 5/25/80 45/51/81
s 1
f 11/29/15 12/3/14 7/27/28 46/53/82
s 3
f 7/26/25 8/4/24 9/28/31 46/52/83
f 9/28/31 10/15/12 11/30/11 46/52/83
s 6
f 17/80/84 80/98/85 79/81/40 13/82/39 47/54/86
s 8
f 13/82/87 14/19/88 15/31/89 47/54/90
f 15/31/89 16/5/91 17/80/92 47/54/90
s 9
f 22/63/93 57/68/94 56/69/95 18/64/96 48/55/97
s 3
f 18/64/47 19/6/33 20/32/32 48/55/98
f 20/32/32 21/7/34 22/33/48 48/55/98
s 6
f 27/65/44 62/70/43 61/71/56 23/66/55 49/67/99
s 2
f 23/66/52 24/9/51 25/35/61 49/67/100
f 25/34/61 26/20/38 27/36/37 49/56/100
s 6
f 32/76/101 69/96/102 28/77/103 50/58/104
s 3
f 28/37/50 29/10/49 30/39/67 50/57/105
s 2
f 30/38/64 31/16/54 32/76/53 50/58/106
s 1
f 37/44/69 38/17/4 33/41/3 51/60/107
s 2
f 33/40/8 34/8/7 35/43/62 51/59/108
f 35/42/62 36/13/63 37/44/71 51/60/108
s 3
f 43/48/68 44/11/27 39/46/26 52/62/109
s 1
f 39/45/30 40/12/29 41/47/70 52/61/110
s 2
f 41/47/72 42/14/66 43/49/65 52/61/111
s 9
f 58/83/112 57/68/94 22/63/93 28/77/113 68/87/114
s 6
f 53/78/115 85/94/116 84/90/117 55/86/118 54/72/119
f 68/87/120 75/91/121 58/83/122
f 84/90/117 81/97/123 55/86/118
f 60/84/124 73/88/125 70/95/126
f 78/89/127 86/93/128 63/85/129
f 53/78/130 74/92/131 73/88/125 60/84/124 59/73/132
s 9
f 58/83/112 54/72/133 64/74/134 57/68/94
f 57/68/94 64/74/134 56/69/95
f 56/69/95 64/74/134 54/72/135 55/86/136
s 6
f 63/85/42 59/73/137 65/75/138 62/70/43
f 62/70/43 65/75/138 61/71/56
f 61/71/56 65/75/138 59/73/139 60/84/57
f 75/91/121 74/92/131 53/78/115 54/72/119 58/83/122
s 9
f 81/97/140 80/98/141 17/80/142 18/64/96 56/69/95 55/86/136
s 6
f 86/93/128 85/94/116 53/78/130 59/73/132 63/85/129
f 68/87/120 67/101/143 71/102/144 75/91/121
f 67/101/143 66/100/145 72/103/146 71/102/144
f 66/100/145 70/95/126 73/88/125 72/103/146
f 78/89/127 77/105/147 82/106/148 86/93/128
f 77/105/147 76/104/149 83/107/150 82/106/148
f 76/104/149 81/97/123 84/90/117 83/107/150
f 74/92/131 75/91/121 71/102/144
f 74/92/131 71/102/144 72/103/146
f 74/92/131 72/103/146 73/88/125
f 85/94/116 86/93/128 82/106/148
f 85/94/116 82/106/148 83/107/150
f 85/94/116 83/107/150 84/90/117
f 70/95/126 66/100/145 87/108/151 69/96/102
f 69/96/102 87/108/151 88/109/152 28/77/103
f 28/77/103 88/109/152 67/101/143 68/87/120
f 67/101/143 88/109/152 87/108/151 66/100/145
f 81/97/123 76/104/149 89/110/153 80/98/85
f 80/98/85 89/110/153 90/111/154 79/99/40
f 79/99/40 90/111/154 77/105/147 78/89/127
f 77/105/147 90/111/154 89/110/153 76/104/149
