# This file uses centimeters as units for non-parametric coordinates.

mtllib diamond ring.mtl
g default
v -2.667202 0.074861 1.358862
v -2.389972 0.074861 1.561082
v -2.094860 0.074861 1.371218
v -2.381502 0.074861 1.168794
v -2.481135 0.086570 1.561159
v -2.391292 0.086570 1.626693
v -1.997465 0.083580 1.373321
v -2.301123 0.086570 1.158882
v -2.379990 0.086570 1.103187
v -2.761252 0.083580 1.356831
v -2.764781 0.082006 1.356125
v -2.482065 0.084996 1.562348
v -2.300384 0.084996 1.156340
v -1.993909 0.082006 1.372769
v -2.519526 0.090692 1.362050
v -2.509085 0.092547 1.362275
v -2.504761 0.097025 1.362369
v -2.386976 0.090692 1.458737
v -2.386764 0.092547 1.451500
v -2.386677 0.097025 1.448503
v -2.245876 0.090692 1.367958
v -2.256553 0.092547 1.367727
v -2.260976 0.097025 1.367632
v -2.382927 0.090692 1.271174
v -2.383027 0.092547 1.278413
v -2.383069 0.097025 1.281411
v -2.500436 0.101503 1.362462
v -2.489994 0.103357 1.362687
v -2.386377 0.103357 1.438269
v -2.386589 0.101503 1.445506
v -2.276076 0.103357 1.367306
v -2.265399 0.101503 1.367537
v -2.383211 0.103357 1.291648
v -2.383111 0.101503 1.284409
v -2.602038 0.074861 1.360268
v -2.594010 0.075784 1.360442
v -2.588132 0.078304 1.360569
v -2.585981 0.081747 1.360615
v -2.388650 0.074861 1.515922
v -2.388488 0.075784 1.510357
v -2.388368 0.078304 1.506284
v -2.388324 0.081747 1.504793
v -2.161497 0.074861 1.369780
v -2.169708 0.075784 1.369602
v -2.175718 0.078304 1.369473
v -2.177918 0.081747 1.369425
v -2.382131 0.074861 1.213970
v -2.382208 0.075784 1.219536
v -2.382265 0.078304 1.223611
v -2.382286 0.081747 1.225103
v -2.585981 0.083806 1.360615
v -2.583829 0.087249 1.360662
v -2.577952 0.089770 1.360788
v -2.569922 0.090692 1.360962
v -2.388324 0.083806 1.504793
v -2.388281 0.087249 1.503302
v -2.388162 0.089770 1.499228
v -2.387999 0.090692 1.493664
v -2.177918 0.083806 1.369425
v -2.180118 0.087249 1.369378
v -2.186128 0.089770 1.369248
v -2.194338 0.090692 1.369071
v -2.382286 0.083806 1.225103
v -2.382307 0.087249 1.226594
v -2.382363 0.089770 1.230669
v -2.382441 0.090692 1.236235
v -2.391244 0.085387 1.540027
v -2.389090 0.082767 1.544788
v -2.396536 0.086570 1.539010
v -2.104246 0.082890 1.369183
v -2.099901 0.085893 1.371110
v -2.106405 0.078720 1.370969
v -2.378681 0.085283 1.189206
v -2.381331 0.082501 1.184564
v -2.373057 0.086570 1.189481
v -2.657594 0.082866 1.360950
v -2.661864 0.085875 1.358977
v -2.655642 0.078680 1.359111
v -2.395667 0.082716 1.544868
v -2.410102 0.084996 1.543508
v -2.389630 0.077674 1.554653
v -2.666752 0.084249 1.358242
v -2.662371 0.081123 1.356706
v -2.660244 0.076990 1.358880
v -2.375821 0.082697 1.183426
v -2.363911 0.084996 1.183363
v -2.381429 0.077724 1.174994
v -2.096486 0.084301 1.370554
v -2.100650 0.081352 1.372653
v -2.102075 0.077097 1.370924
v -2.802480 0.026075 1.355941
v -2.808677 0.026787 1.355807
v -2.813213 0.028732 1.355709
v -2.814874 0.031389 1.355673
v -2.490956 0.026075 1.583178
v -2.493049 0.026787 1.586038
v -2.494589 0.028732 1.588125
v -2.495164 0.031389 1.588881
v -2.814874 0.068942 1.355673
v -2.813463 0.071917 1.355704
v -2.809601 0.074110 1.355787
v -2.804313 0.074941 1.355901
v -2.492953 0.076736 1.583816
v -2.494871 0.073890 1.586009
v -2.495715 0.071542 1.587832
v -2.495399 0.070427 1.588710
v -2.492330 0.071785 1.589853
v -2.492201 0.074276 1.587695
v -2.492984 0.076861 1.583988
v -2.490577 0.074861 1.587421
v -2.380078 0.070440 1.066415
v -2.380076 0.073017 1.067188
v -2.380071 0.075268 1.069408
v -2.380063 0.076867 1.072716
v -2.292114 0.076815 1.135021
v -2.290530 0.073825 1.132562
v -2.289890 0.071487 1.130639
v -2.290343 0.070450 1.129785
v -2.290333 0.073039 1.130586
v -2.290925 0.075280 1.132383
v -2.292043 0.076891 1.134950
v -2.294750 0.074861 1.131892
v -2.380078 0.031389 1.066415
v -2.380094 0.028732 1.067567
v -2.380138 0.026787 1.070712
v -2.380198 0.026075 1.075008
v -2.296504 0.026075 1.134116
v -2.294425 0.026786 1.131243
v -2.292838 0.028731 1.129187
v -2.292165 0.031387 1.128498
v -2.392968 0.070440 1.663427
v -2.392932 0.073017 1.662656
v -2.392832 0.075268 1.660438
v -2.392681 0.076867 1.657133
v -1.943844 0.069007 1.374479
v -1.945268 0.071969 1.374448
v -1.949176 0.074169 1.374364
v -1.954541 0.075039 1.374248
v -2.392716 0.026075 1.654838
v -2.392842 0.026787 1.659132
v -2.392934 0.028732 1.662276
v -2.392968 0.031389 1.663427
v -1.943844 0.031389 1.374479
v -1.945542 0.028732 1.374442
v -1.950182 0.026787 1.374342
v -1.956519 0.026075 1.374205
vt 0.390396 0.265396
vt 0.609765 0.265393
vt 0.609766 0.484766
vt 0.625000 0.250000
vt 0.375000 0.250000
vt 0.625000 0.500000
vt 0.375000 0.500000
vt 0.390393 0.484765
vt 0.375000 0.250000
vt 0.625000 0.250000
vt 0.625000 0.500000
vt 0.375000 0.500000
vt 0.375000 0.250000
vt 0.625000 0.250000
vt 0.625000 0.500000
vt 0.375000 0.500000
vt 0.375000 0.250000
vt 0.625000 0.250000
vt 0.625000 0.500000
vt 0.375000 0.500000
vt 0.625000 0.250000
vt 0.375000 0.250000
vt 0.625000 0.500000
vt 0.625000 0.250000
vt 0.375000 0.500000
vt 0.625000 0.500000
vt 0.375000 0.250000
vt 0.375000 0.500000
vt 0.625000 0.250000
vt 0.375000 0.250000
vt 0.625000 0.500000
vt 0.625000 0.250000
vt 0.375000 0.500000
vt 0.625000 0.500000
vt 0.375000 0.250000
vt 0.375000 0.500000
vt 0.378143 0.253131
vt 0.379106 0.254116
vt 0.622998 0.251972
vt 0.622059 0.252891
vt 0.621857 0.496899
vt 0.620908 0.495976
vt 0.376478 0.498518
vt 0.376129 0.498858
vt 0.374587 0.249645
vt 0.373626 0.248680
vt 0.624131 0.250875
vt 0.625057 0.249961
vt 0.625529 0.500468
vt 0.626450 0.501391
vt 0.375727 0.499203
vt 0.374746 0.500227
vt 0.625000 0.250000
vt 0.625000 0.500000
vt 0.375000 0.500000
vt 0.375000 0.250000
vt 0.611102 0.250000
vt 0.375000 0.250000
vt 0.386048 0.500000
vt 0.625000 0.500000
vt 0.625000 0.250000
vt 0.375000 0.500000
vt 0.625000 0.250000
vt 0.375000 0.500000
vt 0.564289 0.250000
vt 0.625000 0.250000
vt 0.625000 0.250000
vt 0.567080 0.250000
vt 0.619832 0.250000
vt 0.426543 0.500000
vt 0.375000 0.500000
vt 0.375000 0.500000
vt 0.423942 0.500000
vt 0.380264 0.500000
vt 0.564289 0.250000
vt 0.426543 0.500000
vt 0.621409 0.996395
vt 0.621421 0.753579
vt 0.564305 0.227281
vt 0.625000 0.027235
vt 0.426426 0.522605
vt 0.375000 0.722765
vt 0.378602 0.753592
vt 0.426568 0.753594
vt 0.875000 0.027235
vt 0.625000 0.227344
vt 0.375000 0.027235
vt 0.125000 0.227344
vt 0.564443 0.027235
vt 0.375000 0.219669
vt 0.425382 0.722777
vt 0.625000 0.529997
vt 0.564289 0.250000
vt 0.625000 0.250000
vt 0.564289 0.250000
vt 0.625000 0.250000
vt 0.375000 0.500000
vt 0.426543 0.500000
vt 0.375000 0.500000
vt 0.375000 0.250000
vt 0.625000 0.500000
vt 0.625000 0.500000
vt 0.625000 0.500000
vt 0.625000 0.500000
vt 0.625000 0.500000
vt 0.375000 0.250000
vt 0.375000 0.250000
vt 0.375000 0.250000
vt 0.375000 0.250000
vt 0.375000 0.250000
vt 0.375000 0.250000
vt 0.375000 0.250000
vt 0.625000 0.500000
vt 0.625000 0.500000
vt 0.625000 0.500000
vt 0.378617 0.996383
vt 0.426543 0.500000
vt 0.375000 0.522656
vt 0.125000 0.027235
vt 0.875000 0.220003
vt 0.563198 0.996395
vt 0.625000 0.722765
vt 0.377316 0.998292
vt 0.375000 0.000000
vt 0.375000 1.000000
vt 0.469835 0.905165
vt 0.564670 -0.000000
vt 0.556817 -0.000000
vt 0.465908 0.909092
vt 0.375074 0.237055
vt 0.375000 0.250000
vt 0.566732 0.250000
vt 0.565988 0.250000
vt 0.566454 0.240524
vt 0.565116 0.250000
vt 0.244385 0.377500
vt 0.134996 0.228249
vt 0.129658 0.250000
vt 0.143775 0.229045
vt 0.426488 0.510625
vt 0.426445 0.518920
vt 0.426473 0.513575
vt 0.426513 0.505727
vt 0.375000 0.750000
vt 0.125000 0.000000
vt 0.377531 0.752138
vt 0.426390 0.748947
vt 0.425951 0.737887
vt 0.624840 0.239430
vt 0.625000 0.250000
vt 0.863800 0.221347
vt 0.625000 0.517452
vt 0.625000 0.507956
vt 0.855321 0.222364
vt 0.621851 0.000000
vt 0.498425 0.876575
vt 0.629747 -0.000000
vt 0.502374 0.872626
vt 0.625000 0.750000
vt 0.875000 0.000000
vt 0.622998 0.751949
vn -0.129008 0.977599 0.166303
vn -0.045848 0.993908 0.100227
vn -0.012443 0.999894 0.007597
vn -0.012443 0.999894 0.007597
vn 0.132026 0.975332 -0.176908
vn 0.045569 0.993565 -0.103691
vn 0.012518 0.999884 -0.008670
vn 0.012518 0.999884 -0.008670
vn 0.010643 0.999895 0.009811
vn 0.010643 0.999895 0.009811
vn -0.021390 0.998501 0.050375
vn 0.049170 0.992191 0.114623
vn 0.129071 0.972805 0.192333
vn -0.011075 0.999891 -0.009786
vn -0.011075 0.999891 -0.009786
vn 0.013039 0.999061 -0.041314
vn -0.053069 0.992166 -0.113090
vn -0.130625 0.973458 -0.187926
vn -0.277604 -0.858345 -0.431486
vn -0.189008 -0.879422 -0.436913
vn -0.229913 -0.853569 -0.467503
vn -0.312169 -0.812651 -0.492086
vn 0.277082 -0.865888 0.416490
vn 0.227430 -0.877324 0.422584
vn 0.262063 -0.850092 0.456800
vn 0.314200 -0.819558 0.479170
vn 0.272378 -0.886779 -0.373406
vn 0.272378 -0.886779 -0.373406
vn 0.272378 -0.886779 -0.373406
vn 0.272378 -0.886779 -0.373406
vn -0.285754 -0.868683 0.404640
vn -0.285754 -0.868683 0.404640
vn -0.285754 -0.868683 0.404640
vn -0.285754 -0.868683 0.404640
vn -0.030957 0.999521 -0.000669
vn -0.174781 0.955007 0.239610
vn -0.005377 0.968721 0.248095
vn -0.000569 0.999652 0.026376
vn -0.515864 0.483453 0.707218
vn -0.515864 0.483456 0.707216
vn -0.515864 0.483455 0.707216
vn -0.515864 0.483453 0.707218
vn 0.031647 0.999499 0.000683
vn 0.000570 0.999652 -0.026376
vn -0.007121 0.999975 -0.000155
vn -0.164291 0.955002 -0.246940
vn 0.005355 0.968722 -0.248092
vn 0.000393 0.999834 -0.018227
vn -0.484861 0.483459 -0.728819
vn -0.484861 0.483457 -0.728821
vn -0.484861 0.483456 -0.728821
vn -0.484861 0.483459 -0.728819
vn -0.515864 0.483457 0.707215
vn -0.515864 0.483457 0.707215
vn -0.174796 0.954998 0.239633
vn -0.000394 0.999834 0.018225
vn -0.005357 0.968719 0.248103
vn 0.473624 0.483460 0.736170
vn 0.473622 0.483462 0.736170
vn 0.473622 0.483462 0.736170
vn 0.473624 0.483461 0.736170
vn 0.006759 0.999977 0.000146
vn 0.160480 0.955002 0.249435
vn 0.504950 0.483473 -0.715038
vn 0.504952 0.483460 -0.715045
vn 0.504952 0.483460 -0.715045
vn 0.504950 0.483476 -0.715036
vn 0.171089 0.955005 -0.242270
vn 0.160484 0.954999 0.249445
vn 0.473628 0.483458 0.736169
vn 0.473628 0.483458 0.736169
vn 0.171100 0.955000 -0.242282
vn 0.005334 0.968721 -0.248096
vn 0.504947 0.483502 -0.715021
vn 0.504947 0.483502 -0.715021
vn -0.484859 0.483452 -0.728825
vn -0.484859 0.483452 -0.728825
vn -0.164277 0.955006 -0.246935
vn 0.000000 1.000000 -0.000001
vn 0.000000 1.000000 -0.000000
vn -0.000162 0.999972 0.007502
vn -0.002874 0.999996 -0.000063
vn 0.000000 1.000000 -0.000001
vn 0.002726 0.999996 0.000058
vn 0.000000 1.000000 -0.000001
vn 0.000162 0.999972 -0.007504
vn -0.572472 0.237365 0.784814
vn -0.573671 0.228879 0.786458
vn -0.576749 0.205375 0.790685
vn -0.578534 0.190371 0.793132
vn 0.526699 0.228844 0.818669
vn 0.525538 0.237788 0.816864
vn 0.531256 0.189428 0.825763
vn 0.529514 0.205420 0.823054
vn 0.560295 0.237817 -0.793418
vn 0.561534 0.228872 -0.795171
vn 0.564554 0.205391 -0.799433
vn 0.566411 0.189405 -0.802062
vn -0.539200 0.228851 -0.810488
vn -0.538073 0.237336 -0.808795
vn -0.543764 0.190371 -0.817362
vn -0.542085 0.205380 -0.814839
vn -0.050294 0.998734 -0.001085
vn -0.001056 0.998801 0.048940
vn 0.050058 0.998746 0.001079
vn 0.001057 0.998801 -0.048941
vn -0.399512 0.692642 -0.600531
vn -0.415859 0.660537 -0.625102
vn -0.165102 0.986270 -0.003567
vn -0.056625 0.972268 -0.226910
vn -0.425056 0.692654 0.582715
vn -0.442450 0.660547 0.606561
vn -0.066373 0.972268 0.224255
vn 0.406236 0.660504 0.631433
vn 0.389443 0.694195 0.605332
vn 0.324602 0.800036 0.504554
vn 0.324602 0.800036 0.504554
vn 0.111616 0.993749 0.002413
vn 0.415206 0.694210 -0.587942
vn 0.433111 0.660514 -0.613300
vn 0.346082 0.800051 -0.490046
vn 0.346082 0.800051 -0.490046
vn -0.330116 0.943913 -0.007129
vn 0.008768 0.913703 -0.406288
vn -0.521592 0.336482 -0.784042
vn -0.521592 0.336482 -0.784042
vn -0.332292 0.800069 -0.499471
vn -0.332292 0.800069 -0.499471
vn -0.008775 0.913701 0.406292
vn -0.353540 0.800070 0.484663
vn -0.353540 0.800070 0.484663
vn -0.554945 0.336482 0.760799
vn -0.554945 0.336482 0.760799
vn 0.325137 0.945641 0.007019
vn 0.453778 0.544606 0.705329
vn 0.473926 0.482441 0.736645
vn 0.505285 0.482419 -0.715514
vn 0.483806 0.544583 -0.685099
vn -0.205734 -0.832227 -0.514851
vn -0.405498 -0.634320 -0.658187
vn -0.500291 0.074316 -0.862662
vn -0.500291 0.074316 -0.862662
vn -0.500291 0.074316 -0.862662
vn -0.500291 0.074316 -0.862662
vn 0.260145 -0.822099 0.506436
vn 0.411814 -0.642370 0.646351
vn 0.506602 0.174263 0.844386
vn 0.506602 0.174263 0.844385
vn 0.506602 0.174263 0.844386
vn 0.506602 0.174263 0.844386
vn 0.254260 0.896843 -0.361974
vn 0.254260 0.896843 -0.361974
vn 0.254260 0.896843 -0.361974
vn 0.254260 0.896843 -0.361974
vn 0.512801 -0.475415 -0.714854
vn 0.512801 -0.475415 -0.714854
vn 0.512801 -0.475415 -0.714854
vn 0.512801 -0.475415 -0.714854
vn -0.245684 0.900412 0.359023
vn -0.245684 0.900412 0.359023
vn -0.245684 0.900412 0.359023
vn -0.245684 0.900412 0.359022
vn -0.517689 -0.423924 0.743160
vn -0.517689 -0.423924 0.743160
vn -0.517689 -0.423924 0.743160
vn -0.517689 -0.423924 0.743160
vn -0.114846 -0.891288 -0.438653
vn -0.114846 -0.891288 -0.438653
vn -0.114846 -0.891288 -0.438653
vn -0.114846 -0.891288 -0.438653
vn 0.181706 -0.885728 0.427165
vn 0.181706 -0.885728 0.427165
vn 0.181706 -0.885728 0.427165
vn 0.181706 -0.885728 0.427165
vn 0.105579 0.908969 0.403273
vn 0.105579 0.908969 0.403273
vn -0.126503 0.943001 0.307808
vn 0.105579 0.908969 0.403273
vn 0.105579 0.908969 0.403273
vn 0.105579 0.908969 0.403273
vn -0.174908 0.894614 -0.411184
vn -0.174908 0.894614 -0.411184
vn 0.125354 0.937613 -0.324296
vn -0.174908 0.894614 -0.411184
vn -0.174908 0.894614 -0.411184
vn -0.174908 0.894614 -0.411184
vn -0.234040 0.920708 0.312287
vn -0.408574 0.721634 0.558848
vn -0.375428 0.772517 0.512124
vn -0.525780 0.453285 0.719784
vn -0.509633 0.503614 0.697601
vn -0.589293 0.012761 0.807819
vn -0.589316 0.010219 0.807838
vn 0.576890 0.010627 -0.816753
vn 0.507500 0.485419 -0.711907
vn 0.517797 0.442377 -0.732249
vn 0.576835 0.011725 -0.816776
vn 0.374745 0.761739 -0.528507
vn 0.404078 0.714591 -0.571035
vn 0.243968 0.909112 -0.337632
vn -0.000715 -0.999998 -0.001634
vn 0.032398 -0.967171 -0.252054
vn 0.228788 -0.917983 -0.323981
vn 0.000434 -1.000000 -0.000614
vn 0.345960 -0.800197 -0.489893
vn 0.345941 -0.800219 -0.489872
vn 0.543154 -0.336719 -0.769158
vn 0.576740 -0.019405 -0.816697
vn 0.576684 -0.023956 -0.816616
vn 0.543169 -0.336650 -0.769178
vn 0.540950 -0.019970 0.840818
vn 0.453231 -0.546202 0.704446
vn 0.473530 -0.483815 0.735998
vn 0.540983 -0.016628 0.840869
vn 0.324564 -0.800117 0.504452
vn 0.324564 -0.800117 0.504452
vn -0.049764 -0.964512 0.259307
vn 0.000674 -0.999998 0.001725
vn 0.003164 -0.999995 0.000589
vn 0.268955 -0.911614 -0.310842
vn -0.589336 0.016662 0.807716
vn -0.589157 -0.023138 0.807687
vn -0.589205 -0.019585 0.807746
vn 0.576796 0.013942 -0.816769
vn -0.000435 -1.000000 0.000597
vn -0.002999 -0.999995 -0.000655
vn 0.541042 0.013437 0.840888
vn 0.541030 0.015649 0.840858
vn -0.553786 -0.019987 -0.832419
vn -0.553818 -0.016825 -0.832467
vn -0.553880 0.013764 -0.832483
vn -0.553867 0.016020 -0.832451
vn -0.589230 -0.016839 0.807790
vn 0.576769 -0.016675 -0.816737
vn -0.221515 0.926803 0.303262
vn 0.109900 0.943838 0.311596
vn 0.200922 0.931104 0.304427
vn 0.217422 0.926250 -0.307878
vn -0.127233 0.945536 -0.299623
vn -0.201490 0.934072 -0.294808
vn 0.026959 -0.004877 -0.999625
vn 0.026959 -0.004877 -0.999625
vn 0.026959 -0.004877 -0.999625
vn 0.026959 -0.004877 -0.999625
vn 0.026959 -0.004877 -0.999625
vn 0.026959 -0.004877 -0.999625
vn -0.027245 -0.004896 0.999617
vn -0.027245 -0.004896 0.999617
vn -0.027245 -0.004896 0.999617
vn -0.027245 -0.004896 0.999617
vn -0.027245 -0.004896 0.999617
vn -0.027245 -0.004896 0.999617
vn 0.015469 -0.083641 -0.996376
vn 0.015469 -0.083641 -0.996376
vn 0.015469 -0.083641 -0.996376
vn 0.015469 -0.083641 -0.996376
vn 0.015469 -0.083641 -0.996376
vn 0.015469 -0.083641 -0.996376
vn -0.013784 0.072318 0.997286
vn -0.013784 0.072318 0.997286
vn -0.013784 0.072318 0.997286
vn -0.013784 0.072318 0.997286
vn -0.013784 0.072318 0.997286
vn -0.013784 0.072318 0.997286
vn -0.515657 0.496172 0.698507
vn -0.408067 0.727786 0.551189
vn -0.460316 0.636583 0.618766
vn 0.954240 0.298762 0.012951
vn 0.954240 0.298762 0.012951
vn 0.518815 0.474558 -0.711074
vn 0.954240 0.298762 0.012951
vn 0.954240 0.298762 0.012951
vn 0.954240 0.298762 0.012951
vn -0.514723 -0.486939 0.705656
vn -0.467122 -0.609667 0.640393
vn -0.353505 -0.800098 0.484641
vn -0.234772 -0.917215 0.321868
vn -0.113603 -0.993217 -0.024803
vn -0.374636 0.739695 -0.559016
vn -0.348956 0.779602 -0.520048
vn -0.511739 0.386822 -0.767132
vn -0.498347 0.440508 -0.746728
vn 0.399273 0.721781 -0.565344
vn 0.364695 0.774832 -0.516365
vn 0.525847 0.411248 -0.744553
vn -0.332298 -0.800064 -0.499476
vn -0.483819 -0.486860 -0.727246
vn -0.463999 -0.546137 -0.697452
vn -0.332298 -0.800064 -0.499476
vn -0.436803 0.679863 0.589058
vn -0.517786 0.489527 0.701613
vn 0.346544 0.770961 0.534347
vn 0.370478 0.731906 0.571891
vn 0.488812 0.432684 0.757527
vn 0.501390 0.379938 0.777338
vn -0.554964 -0.336471 0.760790
vn -0.353510 -0.800104 0.484627
vn 0.345936 -0.800224 -0.489867
vn 0.543172 -0.336631 -0.769184
s 1
g diamond_ring1 display_pieces
usemtl initialShadingGroup
f 11/100/1 12/65/2 80/57/3 82/111/4
s 2
f 14/101/5 13/70/6 86/59/7 88/114/8
s 1
f 71/54/9 69/69/10 5/95/11 6/96/12 7/103/13
s 2
f 77/56/14 75/74/15 8/98/16 9/99/17 10/107/18
s 5
f 3/113/19 2/67/20 68/53/21 72/105/22
s 6
f 1/110/23 4/72/24 74/55/25 78/109/26
s off
f 2/67/27 1/110/28 84/58/29 81/66/30
f 4/72/31 3/113/32 90/60/33 87/71/34
s 7
f 28/1/35 27/13/36 30/14/37 29/2/38
s 8
f 27/13/39 17/5/40 20/4/41 30/14/42
s 7
f 28/1/35 29/2/38 31/3/43 33/8/44
s 9
f 15/30/45 16/9/46 25/12/47 24/36/48
s 10
f 16/9/49 17/5/50 26/7/51 25/12/52
s 8
f 17/5/40 16/9/53 19/10/54 20/4/41
s 9
f 16/9/55 15/30/45 18/32/56 19/10/57
s 12
f 20/4/58 19/10/59 22/11/60 23/6/61
s 9
f 19/10/57 18/32/56 21/34/62 22/11/63
s 13
f 23/6/64 22/11/65 25/12/66 26/7/67
s 9
f 22/11/68 21/34/62 24/36/48 25/12/47
s 7
f 29/2/38 30/14/37 32/15/69 31/3/43
s 12
f 30/14/70 20/4/58 23/6/61 32/15/71
s 7
f 31/3/43 32/15/72 34/16/73 33/8/44
s 13
f 32/15/74 23/6/64 26/7/67 34/16/75
s 10
f 17/5/50 27/13/76 34/16/77 26/7/51
s 7
f 27/13/78 28/1/35 33/8/44 34/16/73
s 14
f 1/110/79 2/67/80 39/18/81 35/17/82
f 2/67/80 3/113/83 43/19/84 39/18/81
f 3/113/83 4/72/85 47/20/86 43/19/84
f 4/72/85 1/110/79 35/17/82 47/20/86
f 38/27/87 42/21/88 55/24/89 51/22/90
s 9
f 42/21/91 46/23/92 59/26/93 55/24/94
f 46/23/95 50/25/96 63/28/97 59/26/98
s 14
f 50/25/99 38/27/100 51/22/101 63/28/102
s 9
f 54/35/103 58/29/104 18/32/56 15/30/45
f 58/29/104 62/31/105 21/34/62 18/32/56
f 62/31/105 66/33/106 24/36/48 21/34/62
f 66/33/106 54/35/103 15/30/45 24/36/48
s 14
f 37/38/107 38/27/100 50/25/99 49/44/108
f 35/17/82 36/37/109 48/43/110 47/20/86
f 36/37/109 37/38/107 49/44/108 48/43/110
f 38/27/87 37/38/111 41/40/112 42/21/88
f 37/38/111 36/37/109 40/39/113 41/40/112
f 36/37/109 35/17/82 39/18/81 40/39/113
s 9
f 42/21/91 41/40/114 45/42/115 46/23/92
f 41/40/114 40/39/116 44/41/117 45/42/115
s 14
f 40/39/113 39/18/81 43/19/84 44/41/118
s 9
f 46/23/95 45/42/119 49/44/120 50/25/96
f 45/42/119 44/41/121 48/43/122 49/44/120
s 14
f 44/41/118 43/19/84 47/20/86 48/43/110
s 9
f 53/46/123 54/35/103 66/33/106 65/52/124
s 14
f 51/22/101 52/45/125 64/51/126 63/28/102
s 9
f 52/45/127 53/46/123 65/52/124 64/51/128
f 54/35/103 53/46/123 57/48/129 58/29/104
f 53/46/123 52/45/130 56/47/131 57/48/129
s 14
f 52/45/132 51/22/90 55/24/89 56/47/133
s 9
f 58/29/104 57/48/129 61/50/134 62/31/105
f 57/48/129 56/47/135 60/49/136 61/50/134
f 56/47/135 55/24/94 59/26/93 60/49/136
f 62/31/105 61/50/134 65/52/124 66/33/106
f 61/50/134 60/49/137 64/51/138 65/52/124
f 60/49/137 59/26/98 63/28/97 64/51/138
s 5
f 68/53/21 67/61/139 70/102/140 72/105/22
s off
f 67/61/141 69/69/142 71/54/143 70/102/144
s 6
f 74/55/25 73/62/145 76/106/146 78/109/26
s off
f 73/62/147 75/74/148 77/56/149 76/106/150
f 80/57/151 79/63/152 83/112/153 82/111/154
f 79/63/155 81/66/156 84/58/157 83/112/158
f 86/59/159 85/64/160 89/115/161 88/114/162
f 85/64/163 87/71/164 90/60/165 89/115/166
s 5
f 67/61/139 68/53/21 2/67/20 110/68/167 109/93/168 5/95/169 69/69/170
s 6
f 73/62/145 74/55/25 4/72/24 122/73/171 121/117/172 8/98/173 75/74/174
s 1
f 79/63/175 80/57/176 12/65/2 103/75/177 110/68/178 2/67/179 81/66/180
s 2
f 85/64/181 86/59/182 13/70/6 115/76/183 122/73/184 4/72/185 87/71/186
s 1
f 102/108/187 101/131/188 104/132/189 103/75/177
f 101/131/188 100/130/190 105/133/191 104/132/189
f 100/130/190 99/90/192 106/79/193 105/133/191
s 2
f 118/81/194 117/141/195 136/152/196 135/92/197
f 117/141/195 116/140/198 137/153/199 136/152/196
f 116/140/198 115/76/183 138/104/200 137/153/199
s 1
f 126/83/201 125/146/202 128/147/203 127/84/204
f 125/146/202 124/144/205 129/148/206 128/147/203
s 2
f 124/144/207 123/82/208 130/91/209 129/148/210
s 1
f 142/80/211 141/157/212 144/160/213 143/85/214
f 141/158/212 140/156/215 145/161/216 144/159/213
f 140/156/217 139/77/218 146/78/219 145/161/220
f 131/86/221 106/79/193 98/89/222 142/80/223
s 2
f 111/118/224 118/81/194 130/91/209 123/82/208
s 1
f 126/83/201 127/84/204 146/78/219 139/77/218 95/121/225 91/116/226
f 142/80/211 143/85/214 135/120/227 131/86/228
s 2
f 123/119/229 94/87/230 99/90/231 111/88/232
s 1
f 94/87/233 98/89/222 106/79/193 99/90/192
s 2
f 130/91/209 118/81/194 135/92/197 143/122/234
s 1
f 109/93/235 134/94/236 6/96/12 5/95/11
f 134/94/236 138/104/237 7/103/13 6/96/12
s 2
f 121/117/238 114/97/239 9/99/17 8/98/16
f 114/97/239 102/108/240 10/107/18 9/99/17
s 1
f 102/108/187 103/75/177 12/65/2 11/100/1
s 2
f 138/104/200 115/76/183 13/70/6 14/101/5
s off
f 70/102/241 71/54/242 7/103/243 138/104/244 3/113/245 72/105/246
f 76/106/247 77/56/248 10/107/249 102/108/250 1/110/251 78/109/252
f 1/110/253 102/108/254 11/100/255 82/111/256 83/112/257 84/58/258
f 3/113/259 138/104/260 14/101/261 88/114/262 89/115/263 90/60/264
s 1
f 103/75/177 104/132/189 105/133/191 106/79/193 107/134/265 108/135/266 109/93/235 110/68/267
s 2
f 115/76/268 116/140/269 117/141/195 118/81/194 119/142/270 120/143/271 121/117/272 122/73/273
s 1
f 94/87/233 93/124/274 97/128/275 98/89/222
f 93/125/274 92/123/276 96/126/277 97/129/275
f 92/123/278 91/116/226 95/121/225 96/126/277
s 2
f 101/131/279 102/108/240 114/97/239 113/138/280
f 99/90/231 100/130/281 112/137/282 111/88/232
f 100/130/281 101/131/279 113/139/280 112/137/282
f 113/138/283 114/97/239 121/117/238 120/143/284
f 111/118/224 112/136/285 119/142/270 118/81/194
f 112/136/285 113/138/283 120/143/284 119/142/270
s 1
f 91/116/226 92/123/278 125/146/202 126/83/201
s 2
f 92/123/286 93/125/287 124/144/288 125/146/289
f 93/124/287 94/87/230 123/119/229 124/145/288
s 1
f 109/93/235 108/135/266 133/150/290 134/94/236
f 108/135/266 107/134/265 132/149/291 133/150/290
f 107/134/265 106/79/193 131/86/221 132/149/291
f 134/94/236 133/150/292 137/153/293 138/104/237
f 133/150/292 132/149/294 136/151/295 137/154/293
f 132/149/294 131/86/228 135/120/227 136/151/295
f 98/89/222 97/128/275 141/157/296 142/80/223
f 97/128/275 96/127/277 140/155/217 141/157/297
f 96/126/277 95/121/225 139/77/218 140/156/217
f 127/84/204 128/147/203 145/161/220 146/78/219
f 128/147/203 129/148/206 144/159/298 145/161/220
s 2
f 129/148/210 130/91/209 143/122/234 144/159/299
